<mxfile host="65bd71144e">
    <diagram id="NCVRNOnxWubBHpFB1vgN" name="PÃ¡gina-1">
        <mxGraphModel dx="788" dy="410" grid="0" gridSize="10" guides="1" tooltips="1" connect="1" arrows="1" fold="1" page="1" pageScale="1" pageWidth="1169" pageHeight="827" background="#FFFFFF" math="0" shadow="0">
            <root>
                <mxCell id="0"/>
                <mxCell id="1" parent="0"/>
                <mxCell id="3" value="TCM_ESP8266 File System" style="swimlane;fontStyle=0;childLayout=stackLayout;horizontal=1;startSize=26;horizontalStack=0;resizeParent=1;resizeParentMax=0;resizeLast=0;collapsible=1;marginBottom=0;strokeColor=#000000;strokeWidth=2;fillColor=none;fontColor=#000000;" vertex="1" parent="1">
                    <mxGeometry x="423" y="222" width="174" height="130" as="geometry">
                        <mxRectangle x="423" y="222" width="90" height="26" as="alternateBounds"/>
                    </mxGeometry>
                </mxCell>
                <mxCell id="5" value="register_config.json" style="text;strokeColor=none;fillColor=none;align=left;verticalAlign=top;spacingLeft=4;spacingRight=4;overflow=hidden;rotatable=0;points=[[0,0.5],[1,0.5]];portConstraint=eastwest;fontColor=#000000;" vertex="1" parent="3">
                    <mxGeometry y="26" width="174" height="26" as="geometry"/>
                </mxCell>
                <mxCell id="6" value="new_network.html" style="text;strokeColor=none;fillColor=none;align=left;verticalAlign=top;spacingLeft=4;spacingRight=4;overflow=hidden;rotatable=0;points=[[0,0.5],[1,0.5]];portConstraint=eastwest;fontColor=#000000;" vertex="1" parent="3">
                    <mxGeometry y="52" width="174" height="26" as="geometry"/>
                </mxCell>
                <mxCell id="9" value="confirm.html" style="text;strokeColor=none;fillColor=none;align=left;verticalAlign=top;spacingLeft=4;spacingRight=4;overflow=hidden;rotatable=0;points=[[0,0.5],[1,0.5]];portConstraint=eastwest;fontColor=#000000;" vertex="1" parent="3">
                    <mxGeometry y="78" width="174" height="26" as="geometry"/>
                </mxCell>
                <mxCell id="8" value="system_info.json" style="text;strokeColor=none;fillColor=none;align=left;verticalAlign=top;spacingLeft=4;spacingRight=4;overflow=hidden;rotatable=0;points=[[0,0.5],[1,0.5]];portConstraint=eastwest;fontColor=#000000;" vertex="1" parent="3">
                    <mxGeometry y="104" width="174" height="26" as="geometry"/>
                </mxCell>
            </root>
        </mxGraphModel>
    </diagram>
</mxfile>